<?xml version="1.0" standalone="no"?><!DOCTYPE svg PUBLIC "-//W3C//DTD SVG 1.1//EN" "http://www.w3.org/Graphics/SVG/1.1/DTD/svg11.dtd"><svg t="1527262793304" class="icon" style="" viewBox="0 0 1024 1024" version="1.1" xmlns="http://www.w3.org/2000/svg" p-id="3375" xmlns:xlink="http://www.w3.org/1999/xlink" width="32" height="32"><defs><style type="text/css"></style></defs><path d="M616.256 32 616.256 96 168.256 96 168.256 928 616.256 928 616.256 992 104.256 992 104.256 32Z" p-id="3376" fill="#2c2c2c"></path><path d="M804.352 544l-444.16 0 0-64 444.16 0L630.592 323.584C617.472 311.744 616.384 291.52 628.224 278.4c11.84-13.184 32-14.208 45.184-2.368l235.776 212.224c6.784 6.08 10.624 14.72 10.624 23.808s-3.84 17.728-10.624 23.808l-235.776 212.224c-6.144 5.504-13.76 8.192-21.376 8.192-8.768 0-17.472-3.584-23.808-10.56-11.84-13.12-10.752-33.344 2.368-45.184L804.352 544z" p-id="3377" fill="#2c2c2c"></path></svg>